<mxfile host="Electron" agent="Mozilla/5.0 (Windows NT 10.0; Win64; x64) AppleWebKit/537.36 (KHTML, like Gecko) draw.io/28.1.2 Chrome/138.0.7204.243 Electron/37.4.0 Safari/537.36" version="28.1.2">
  <diagram name="Seite-1" id="cSntvEF0rbsshvqYQuXH">
    <mxGraphModel dx="1426" dy="841" grid="1" gridSize="10" guides="1" tooltips="1" connect="1" arrows="1" fold="1" page="1" pageScale="1" pageWidth="827" pageHeight="1169" math="0" shadow="0">
      <root>
        <mxCell id="0" />
        <mxCell id="1" parent="0" />
        <mxCell id="ssgmGlRvx4_Hj_5hTBAI-10" value="" style="edgeStyle=orthogonalEdgeStyle;rounded=0;orthogonalLoop=1;jettySize=auto;html=1;" edge="1" parent="1" source="ssgmGlRvx4_Hj_5hTBAI-1" target="ssgmGlRvx4_Hj_5hTBAI-7">
          <mxGeometry relative="1" as="geometry" />
        </mxCell>
        <mxCell id="ssgmGlRvx4_Hj_5hTBAI-1" value="Start" style="ellipse;whiteSpace=wrap;html=1;" vertex="1" parent="1">
          <mxGeometry x="320" y="120" width="120" height="80" as="geometry" />
        </mxCell>
        <mxCell id="ssgmGlRvx4_Hj_5hTBAI-3" value="Process: means when your app shall do something itself" style="shape=document;whiteSpace=wrap;html=1;boundedLbl=1;" vertex="1" parent="1">
          <mxGeometry x="100" y="340" width="120" height="80" as="geometry" />
        </mxCell>
        <mxCell id="ssgmGlRvx4_Hj_5hTBAI-11" value="" style="edgeStyle=orthogonalEdgeStyle;rounded=0;orthogonalLoop=1;jettySize=auto;html=1;" edge="1" parent="1" source="ssgmGlRvx4_Hj_5hTBAI-7" target="ssgmGlRvx4_Hj_5hTBAI-8">
          <mxGeometry relative="1" as="geometry" />
        </mxCell>
        <mxCell id="ssgmGlRvx4_Hj_5hTBAI-7" value="define variablen:&lt;div&gt;&lt;span style=&quot;background-color: light-dark(#ffffff, var(--ge-dark-color, #121212));&quot;&gt;&lt;font style=&quot;color: rgb(51, 51, 255);&quot;&gt;name&lt;/font&gt;&lt;/span&gt;: &quot;Gleb&quot;&lt;br&gt;&lt;/div&gt;&lt;div&gt;&lt;font style=&quot;color: rgb(51, 51, 255);&quot;&gt;country&lt;/font&gt;: &quot;Russland&quot;&lt;/div&gt;&lt;div&gt;&lt;font style=&quot;color: rgb(51, 51, 255);&quot;&gt;Age&lt;/font&gt;: &quot;26&lt;span style=&quot;background-color: transparent; color: light-dark(rgb(0, 0, 0), rgb(255, 255, 255));&quot;&gt;&quot;&lt;/span&gt;&lt;/div&gt;" style="shape=process;whiteSpace=wrap;html=1;backgroundOutline=1;" vertex="1" parent="1">
          <mxGeometry x="310" y="230" width="140" height="70" as="geometry" />
        </mxCell>
        <mxCell id="ssgmGlRvx4_Hj_5hTBAI-15" value="" style="edgeStyle=orthogonalEdgeStyle;rounded=0;orthogonalLoop=1;jettySize=auto;html=1;" edge="1" parent="1" source="ssgmGlRvx4_Hj_5hTBAI-8" target="ssgmGlRvx4_Hj_5hTBAI-13">
          <mxGeometry relative="1" as="geometry" />
        </mxCell>
        <mxCell id="ssgmGlRvx4_Hj_5hTBAI-8" value="&lt;span style=&quot;font-family: Helvetica; font-size: 12px; font-style: normal; font-variant-ligatures: normal; font-variant-caps: normal; font-weight: 400; letter-spacing: normal; orphans: 2; text-align: center; text-indent: 0px; text-transform: none; widows: 2; word-spacing: 0px; -webkit-text-stroke-width: 0px; white-space: normal; text-decoration-thickness: initial; text-decoration-style: initial; text-decoration-color: initial; float: none; display: inline !important; color: rgb(0, 0, 0);&quot;&gt;&lt;font style=&quot;color: rgb(51, 51, 255);&quot;&gt;result &lt;/font&gt;&lt;/span&gt;&lt;span style=&quot;color: rgb(0, 0, 0); font-family: Helvetica; font-size: 12px; font-style: normal; font-variant-ligatures: normal; font-variant-caps: normal; font-weight: 400; letter-spacing: normal; orphans: 2; text-align: center; text-indent: 0px; text-transform: none; widows: 2; word-spacing: 0px; -webkit-text-stroke-width: 0px; white-space: normal; text-decoration-thickness: initial; text-decoration-style: initial; text-decoration-color: initial; float: none; display: inline !important;&quot;&gt;= Hello my name is &quot;&lt;/span&gt;&lt;span style=&quot;font-family: Helvetica; font-size: 12px; font-style: normal; font-variant-ligatures: normal; font-variant-caps: normal; font-weight: 400; letter-spacing: normal; orphans: 2; text-align: center; text-indent: 0px; text-transform: none; widows: 2; word-spacing: 0px; -webkit-text-stroke-width: 0px; white-space: normal; text-decoration-thickness: initial; text-decoration-style: initial; text-decoration-color: initial; float: none; display: inline !important; color: rgb(0, 0, 0);&quot;&gt;&lt;font style=&quot;color: rgb(51, 51, 255);&quot;&gt;name&lt;/font&gt;&lt;/span&gt;&lt;span style=&quot;color: rgb(0, 0, 0); font-family: Helvetica; font-size: 12px; font-style: normal; font-variant-ligatures: normal; font-variant-caps: normal; font-weight: 400; letter-spacing: normal; orphans: 2; text-align: center; text-indent: 0px; text-transform: none; widows: 2; word-spacing: 0px; -webkit-text-stroke-width: 0px; white-space: normal; text-decoration-thickness: initial; text-decoration-style: initial; text-decoration-color: initial; float: none; display: inline !important;&quot;&gt;&quot; and i am &quot;&lt;/span&gt;&lt;span style=&quot;font-family: Helvetica; font-size: 12px; font-style: normal; font-variant-ligatures: normal; font-variant-caps: normal; font-weight: 400; letter-spacing: normal; orphans: 2; text-align: center; text-indent: 0px; text-transform: none; widows: 2; word-spacing: 0px; -webkit-text-stroke-width: 0px; white-space: normal; text-decoration-thickness: initial; text-decoration-style: initial; text-decoration-color: initial; float: none; display: inline !important; color: rgb(0, 0, 0);&quot;&gt;&lt;font style=&quot;color: rgb(51, 51, 255);&quot;&gt;age&lt;/font&gt;&lt;/span&gt;&lt;span style=&quot;color: rgb(0, 0, 0); font-family: Helvetica; font-size: 12px; font-style: normal; font-variant-ligatures: normal; font-variant-caps: normal; font-weight: 400; letter-spacing: normal; orphans: 2; text-align: center; text-indent: 0px; text-transform: none; widows: 2; word-spacing: 0px; -webkit-text-stroke-width: 0px; white-space: normal; text-decoration-thickness: initial; text-decoration-style: initial; text-decoration-color: initial; float: none; display: inline !important;&quot;&gt;&quot; years old and come from &quot;&lt;/span&gt;&lt;span style=&quot;font-family: Helvetica; font-size: 12px; font-style: normal; font-variant-ligatures: normal; font-variant-caps: normal; font-weight: 400; letter-spacing: normal; orphans: 2; text-align: center; text-indent: 0px; text-transform: none; widows: 2; word-spacing: 0px; -webkit-text-stroke-width: 0px; white-space: normal; text-decoration-thickness: initial; text-decoration-style: initial; text-decoration-color: initial; float: none; display: inline !important; color: rgb(0, 0, 0);&quot;&gt;&lt;font style=&quot;color: rgb(51, 51, 255);&quot;&gt;country&lt;/font&gt;&lt;/span&gt;&lt;span style=&quot;color: rgb(0, 0, 0); font-family: Helvetica; font-size: 12px; font-style: normal; font-variant-ligatures: normal; font-variant-caps: normal; font-weight: 400; letter-spacing: normal; orphans: 2; text-align: center; text-indent: 0px; text-transform: none; widows: 2; word-spacing: 0px; -webkit-text-stroke-width: 0px; white-space: normal; text-decoration-thickness: initial; text-decoration-style: initial; text-decoration-color: initial; float: none; display: inline !important;&quot;&gt;&quot;&lt;/span&gt;" style="shape=process;whiteSpace=wrap;html=1;backgroundOutline=1;" vertex="1" parent="1">
          <mxGeometry x="290" y="340" width="180" height="70" as="geometry" />
        </mxCell>
        <mxCell id="ssgmGlRvx4_Hj_5hTBAI-12" value="" style="shape=flexArrow;endArrow=classic;html=1;rounded=0;" edge="1" parent="1">
          <mxGeometry width="50" height="50" relative="1" as="geometry">
            <mxPoint x="220" y="374.5" as="sourcePoint" />
            <mxPoint x="280" y="374.5" as="targetPoint" />
            <Array as="points">
              <mxPoint x="250" y="374.5" />
            </Array>
          </mxGeometry>
        </mxCell>
        <mxCell id="ssgmGlRvx4_Hj_5hTBAI-17" value="" style="edgeStyle=orthogonalEdgeStyle;rounded=0;orthogonalLoop=1;jettySize=auto;html=1;" edge="1" parent="1" source="ssgmGlRvx4_Hj_5hTBAI-13" target="ssgmGlRvx4_Hj_5hTBAI-14">
          <mxGeometry relative="1" as="geometry" />
        </mxCell>
        <mxCell id="ssgmGlRvx4_Hj_5hTBAI-13" value="print: result" style="rounded=1;whiteSpace=wrap;html=1;" vertex="1" parent="1">
          <mxGeometry x="320" y="450" width="120" height="60" as="geometry" />
        </mxCell>
        <mxCell id="ssgmGlRvx4_Hj_5hTBAI-14" value="END" style="ellipse;whiteSpace=wrap;html=1;aspect=fixed;" vertex="1" parent="1">
          <mxGeometry x="340" y="550" width="80" height="80" as="geometry" />
        </mxCell>
        <mxCell id="ssgmGlRvx4_Hj_5hTBAI-18" value="" style="whiteSpace=wrap;html=1;aspect=fixed;" vertex="1" parent="1">
          <mxGeometry y="690" width="479" height="479" as="geometry" />
        </mxCell>
        <mxCell id="ssgmGlRvx4_Hj_5hTBAI-23" value="" style="edgeStyle=orthogonalEdgeStyle;rounded=0;orthogonalLoop=1;jettySize=auto;html=1;" edge="1" parent="1" source="ssgmGlRvx4_Hj_5hTBAI-20" target="ssgmGlRvx4_Hj_5hTBAI-22">
          <mxGeometry relative="1" as="geometry" />
        </mxCell>
        <mxCell id="ssgmGlRvx4_Hj_5hTBAI-20" value="Start" style="ellipse;whiteSpace=wrap;html=1;aspect=fixed;" vertex="1" parent="1">
          <mxGeometry x="220" y="720" width="70" height="70" as="geometry" />
        </mxCell>
        <mxCell id="ssgmGlRvx4_Hj_5hTBAI-21" value="Text Generator Process" style="text;html=1;align=center;verticalAlign=middle;resizable=0;points=[];autosize=1;strokeColor=none;fillColor=none;" vertex="1" parent="1">
          <mxGeometry x="10" y="700" width="150" height="30" as="geometry" />
        </mxCell>
        <mxCell id="ssgmGlRvx4_Hj_5hTBAI-32" value="" style="edgeStyle=orthogonalEdgeStyle;rounded=0;orthogonalLoop=1;jettySize=auto;html=1;" edge="1" parent="1" source="ssgmGlRvx4_Hj_5hTBAI-22" target="ssgmGlRvx4_Hj_5hTBAI-31">
          <mxGeometry relative="1" as="geometry" />
        </mxCell>
        <mxCell id="ssgmGlRvx4_Hj_5hTBAI-22" value="input: name, country, age" style="shape=parallelogram;perimeter=parallelogramPerimeter;whiteSpace=wrap;html=1;fixedSize=1;" vertex="1" parent="1">
          <mxGeometry x="10" y="725" width="180" height="60" as="geometry" />
        </mxCell>
        <mxCell id="ssgmGlRvx4_Hj_5hTBAI-28" value="" style="edgeStyle=orthogonalEdgeStyle;rounded=0;orthogonalLoop=1;jettySize=auto;html=1;" edge="1" parent="1" source="ssgmGlRvx4_Hj_5hTBAI-24" target="ssgmGlRvx4_Hj_5hTBAI-26">
          <mxGeometry relative="1" as="geometry" />
        </mxCell>
        <mxCell id="ssgmGlRvx4_Hj_5hTBAI-24" value="&lt;span style=&quot;float: none; display: inline !important; color: rgb(0, 0, 0);&quot;&gt;&lt;font style=&quot;color: rgb(51, 51, 255);&quot;&gt;result&amp;nbsp;&lt;/font&gt;&lt;/span&gt;&lt;span style=&quot;float: none; display: inline !important; color: rgb(0, 0, 0);&quot;&gt;= Hello my name is &quot;&lt;/span&gt;&lt;span style=&quot;float: none; display: inline !important; color: rgb(0, 0, 0);&quot;&gt;&lt;font style=&quot;color: rgb(51, 51, 255);&quot;&gt;name&lt;/font&gt;&lt;/span&gt;&lt;span style=&quot;float: none; display: inline !important; color: rgb(0, 0, 0);&quot;&gt;&quot; and i am &quot;&lt;/span&gt;&lt;span style=&quot;float: none; display: inline !important; color: rgb(0, 0, 0);&quot;&gt;&lt;font style=&quot;color: rgb(51, 51, 255);&quot;&gt;age&lt;/font&gt;&lt;/span&gt;&lt;span style=&quot;float: none; display: inline !important; color: rgb(0, 0, 0);&quot;&gt;&quot; years old and come from &quot;&lt;/span&gt;&lt;span style=&quot;float: none; display: inline !important; color: rgb(0, 0, 0);&quot;&gt;&lt;font style=&quot;color: rgb(51, 51, 255);&quot;&gt;country&lt;/font&gt;&lt;/span&gt;&lt;span style=&quot;float: none; display: inline !important; color: rgb(0, 0, 0);&quot;&gt;&quot;&lt;/span&gt;" style="rounded=0;whiteSpace=wrap;html=1;" vertex="1" parent="1">
          <mxGeometry x="35" y="930" width="165" height="60" as="geometry" />
        </mxCell>
        <mxCell id="ssgmGlRvx4_Hj_5hTBAI-29" value="" style="edgeStyle=orthogonalEdgeStyle;rounded=0;orthogonalLoop=1;jettySize=auto;html=1;" edge="1" parent="1" source="ssgmGlRvx4_Hj_5hTBAI-26" target="ssgmGlRvx4_Hj_5hTBAI-27">
          <mxGeometry relative="1" as="geometry" />
        </mxCell>
        <mxCell id="ssgmGlRvx4_Hj_5hTBAI-26" value="print result" style="rounded=0;whiteSpace=wrap;html=1;" vertex="1" parent="1">
          <mxGeometry x="57.5" y="1010" width="120" height="60" as="geometry" />
        </mxCell>
        <mxCell id="ssgmGlRvx4_Hj_5hTBAI-27" value="END" style="ellipse;whiteSpace=wrap;html=1;aspect=fixed;" vertex="1" parent="1">
          <mxGeometry x="77.5" y="1089" width="80" height="80" as="geometry" />
        </mxCell>
        <mxCell id="ssgmGlRvx4_Hj_5hTBAI-34" value="yes" style="edgeStyle=orthogonalEdgeStyle;rounded=0;orthogonalLoop=1;jettySize=auto;html=1;" edge="1" parent="1" source="ssgmGlRvx4_Hj_5hTBAI-31" target="ssgmGlRvx4_Hj_5hTBAI-24">
          <mxGeometry relative="1" as="geometry" />
        </mxCell>
        <mxCell id="ssgmGlRvx4_Hj_5hTBAI-36" value="no" style="edgeStyle=orthogonalEdgeStyle;rounded=0;orthogonalLoop=1;jettySize=auto;html=1;" edge="1" parent="1" source="ssgmGlRvx4_Hj_5hTBAI-31" target="ssgmGlRvx4_Hj_5hTBAI-35">
          <mxGeometry relative="1" as="geometry" />
        </mxCell>
        <mxCell id="ssgmGlRvx4_Hj_5hTBAI-31" value="all input exist" style="rhombus;whiteSpace=wrap;html=1;" vertex="1" parent="1">
          <mxGeometry x="60" y="810" width="80" height="80" as="geometry" />
        </mxCell>
        <mxCell id="ssgmGlRvx4_Hj_5hTBAI-38" style="edgeStyle=orthogonalEdgeStyle;rounded=0;orthogonalLoop=1;jettySize=auto;html=1;entryX=1;entryY=0.5;entryDx=0;entryDy=0;exitX=0.5;exitY=1;exitDx=0;exitDy=0;" edge="1" parent="1" source="ssgmGlRvx4_Hj_5hTBAI-35" target="ssgmGlRvx4_Hj_5hTBAI-27">
          <mxGeometry relative="1" as="geometry" />
        </mxCell>
        <mxCell id="ssgmGlRvx4_Hj_5hTBAI-35" value="print: Error" style="rounded=0;whiteSpace=wrap;html=1;" vertex="1" parent="1">
          <mxGeometry x="210" y="820" width="120" height="60" as="geometry" />
        </mxCell>
        <mxCell id="ssgmGlRvx4_Hj_5hTBAI-42" value="&lt;h1 style=&quot;margin-top: 0px;&quot;&gt;&lt;span style=&quot;text-wrap-mode: nowrap;&quot;&gt;&lt;font style=&quot;font-size: 16px;&quot;&gt;Pseudo Code&lt;/font&gt;&lt;/span&gt;&lt;div style=&quot;font-size: 12px; font-weight: 400; text-wrap-mode: nowrap;&quot;&gt;&lt;br&gt;&lt;/div&gt;&lt;div style=&quot;font-size: 12px; font-weight: 400; text-wrap-mode: nowrap;&quot;&gt;START&lt;/div&gt;&lt;div style=&quot;font-size: 12px; font-weight: 400; text-wrap-mode: nowrap;&quot;&gt;&lt;span style=&quot;white-space-collapse: preserve;&quot;&gt;&#x9;&lt;/span&gt;SET name : Gleb&lt;/div&gt;&lt;div style=&quot;font-size: 12px; font-weight: 400; text-wrap-mode: nowrap;&quot;&gt;&lt;span style=&quot;white-space-collapse: preserve;&quot;&gt;&#x9;&lt;/span&gt;SET country : Russland&lt;/div&gt;&lt;div style=&quot;font-size: 12px; font-weight: 400; text-wrap-mode: nowrap;&quot;&gt;&lt;span style=&quot;white-space-collapse: preserve;&quot;&gt;&#x9;&lt;/span&gt;SET age : 26&lt;/div&gt;&lt;div style=&quot;font-size: 12px; font-weight: 400; text-wrap-mode: nowrap;&quot;&gt;&lt;span style=&quot;white-space-collapse: preserve;&quot;&gt;&#x9;&lt;/span&gt;SET result: NULL&lt;br&gt;&lt;/div&gt;&lt;div style=&quot;font-size: 12px; font-weight: 400; text-wrap-mode: nowrap;&quot;&gt;&lt;span style=&quot;background-color: transparent; text-wrap-mode: wrap; text-align: center; float: none; display: inline !important; color: rgb(0, 0, 0);&quot;&gt;&lt;font style=&quot;color: rgb(51, 51, 255);&quot;&gt;&lt;br&gt;&lt;/font&gt;&lt;/span&gt;&lt;/div&gt;&lt;div style=&quot;font-size: 12px; font-weight: 400; text-wrap-mode: nowrap;&quot;&gt;&lt;span style=&quot;background-color: transparent; text-wrap-mode: wrap; text-align: center; float: none; display: inline !important; color: rgb(0, 0, 0);&quot;&gt;&lt;font style=&quot;color: rgb(51, 51, 255);&quot;&gt;&lt;span style=&quot;white-space: pre;&quot;&gt;&#x9;&lt;/span&gt;result&amp;nbsp;&lt;/font&gt;&lt;/span&gt;&lt;span style=&quot;background-color: transparent; text-wrap-mode: wrap; text-align: center; float: none; display: inline !important; color: rgb(0, 0, 0);&quot;&gt;= Hello my name is &quot;&lt;/span&gt;&lt;span style=&quot;background-color: transparent; text-wrap-mode: wrap; text-align: center; float: none; display: inline !important; color: rgb(0, 0, 0);&quot;&gt;&lt;font style=&quot;color: rgb(51, 51, 255);&quot;&gt;name&lt;/font&gt;&lt;/span&gt;&lt;span style=&quot;background-color: transparent; text-wrap-mode: wrap; text-align: center; float: none; display: inline !important; color: rgb(0, 0, 0);&quot;&gt;&quot; and i am &lt;span style=&quot;white-space: pre;&quot;&gt;&#x9;&lt;span style=&quot;white-space: pre;&quot;&gt;&#x9;&lt;/span&gt;&lt;/span&gt;&quot;&lt;/span&gt;&lt;span style=&quot;background-color: transparent; text-wrap-mode: wrap; text-align: center; float: none; display: inline !important; color: rgb(0, 0, 0);&quot;&gt;&lt;font style=&quot;color: rgb(51, 51, 255);&quot;&gt;age&lt;/font&gt;&lt;/span&gt;&lt;span style=&quot;background-color: transparent; text-wrap-mode: wrap; text-align: center; float: none; display: inline !important; color: rgb(0, 0, 0);&quot;&gt;&quot; years old and come from &quot;&lt;/span&gt;&lt;span style=&quot;background-color: transparent; text-wrap-mode: wrap; text-align: center; float: none; display: inline !important; color: rgb(0, 0, 0);&quot;&gt;&lt;font style=&quot;color: rgb(51, 51, 255);&quot;&gt;country&lt;/font&gt;&lt;/span&gt;&lt;span style=&quot;background-color: transparent; text-wrap-mode: wrap; text-align: center; float: none; display: inline !important; color: rgb(0, 0, 0);&quot;&gt;&quot;&lt;/span&gt;&lt;/div&gt;&lt;div style=&quot;font-size: 12px; font-weight: 400; text-wrap-mode: nowrap;&quot;&gt;&lt;span style=&quot;background-color: transparent; text-wrap-mode: wrap; text-align: center; float: none; display: inline !important; color: rgb(0, 0, 0);&quot;&gt;&lt;span style=&quot;white-space: pre;&quot;&gt;&#x9;&lt;/span&gt;PRINT result&lt;br&gt;&lt;/span&gt;&lt;/div&gt;&lt;div style=&quot;font-size: 12px; font-weight: 400; text-wrap-mode: nowrap;&quot;&gt;&lt;span style=&quot;background-color: transparent; text-wrap-mode: wrap; text-align: center; float: none; display: inline !important; color: rgb(0, 0, 0);&quot;&gt;END&lt;/span&gt;&lt;/div&gt;&lt;/h1&gt;" style="text;html=1;whiteSpace=wrap;overflow=hidden;rounded=0;" vertex="1" parent="1">
          <mxGeometry x="500" y="20" width="320" height="200" as="geometry" />
        </mxCell>
      </root>
    </mxGraphModel>
  </diagram>
</mxfile>
